inDegrees=yes
name=ik_S49_A01_T02
DataType=double
version=3
OpenSimVersion=4.3-2021-08-27-4bc7ad9
endheader
time	pelvis_tilt	pelvis_list	pelvis_rotation	pelvis_tx	pelvis_ty	pelvis_tz	hip_flexion_r	hip_adduction_r	hip_rotation_r	knee_angle_r	knee_angle_r_beta	ankle_angle_r	subtalar_angle_r	mtp_angle_r	hip_flexion_l	hip_adduction_l	hip_rotation_l	knee_angle_l	knee_angle_l_beta	ankle_angle_l	subtalar_angle_l	mtp_angle_l	lumbar_extension	lumbar_bending	lumbar_rotation	arm_flex_r	arm_add_r	arm_rot_r	elbow_flex_r	pro_sup_r	wrist_flex_r	wrist_dev_r	arm_flex_l	arm_add_l	arm_rot_l	elbow_flex_l	pro_sup_l	wrist_flex_l	wrist_dev_l
31.99999999999941	-1.808954474406124	-5.607994155940312	-92.88787994161711	0	0.9399999999999999	0	1.571753347513918	-6.357147193165122	-5.093786554251315	29.70797151460636	0.5185019170185677	0	0	0	1.854616667920993	-3.013963273350653	-10.19682772487023	1.02061656709447	0.01781311949620012	0	0	0	0	0	0	42.83862506946475	-42.83862506946475	4.975851156241639	84.66648166593313	85.02414911715252	0	0	42.83862506946475	-42.83862506946475	4.975851156241639	84.66648166593313	85.02414911714784	0	0
32.01999999999941	-1.95635030889826	-5.643242368506064	-92.62629710951602	0	0.9399999999999999	0	2.420826370268242	-6.121197016670865	-4.05922063072952	28.70200233523286	0.5009444426649146	0	0	0	1.418499295464634	-3.055879306326931	-9.743630418266822	1.128523249378315	0.01969644638695665	0	0	0	0	0	0	42.83948800944887	-42.83948800944887	4.975870562354481	84.66674968732474	85.02412971104036	0	0	42.83948800944887	-42.83948800944887	4.975870562354481	84.66674968732474	85.02412971103568	0	0
32.03999999999941	-2.061725928205208	-5.509069876330959	-92.13451171737975	0	0.9399999999999999	0	3.246824728626498	-5.65624933237059	-3.338546452237467	25.58591207743572	0.4465584078770357	0	0	0	1.119259538347006	-3.1208931998712	-9.182986890813901	1.128435377710166	0.01969491273702823	0	0	0	0	0	0	42.84176138158173	-42.84176138158173	4.975918306407212	84.66740908748736	85.02408196698943	0	0	42.84176138158173	-42.84176138158173	4.975918306407212	84.66740908748736	85.02408196698474	0	0
32.05999999999941	-2.045072929965293	-5.479432861702911	-91.82167498744947	0	0.9399999999999999	0	4.236287574061593	-4.755464843355894	-1.769312491854125	19.08033533626949	0.333014674002522	0	0	0	0.6579880304854694	-3.063647033177513	-9.031863053764605	1.005988874545882	0.01755781809925782	0	0	0	0	0	0	42.84372565937486	-42.84372565937486	4.975958491817315	84.66796409356198	85.02404178158083	0	0	42.84372565937486	-42.84372565937486	4.975958491817315	84.66796409356198	85.02404178157614	0	0
32.07999999999942	-2.022887506176689	-5.442856251558942	-91.3953383329852	0	0.9399999999999999	0	4.223856306333887	-4.805796049027414	-2.19608941941982	19.06151934435153	0.3326862729915251	0	0	0	0.2727960900466677	-3.028800576745456	-8.646444565017694	1.047350774946441	0.01827971944612953	0	0	0	0	0	0	42.84387690342518	-42.84387690342518	4.975961852744609	84.66801051192446	85.02403842065364	0	0	42.84387690342518	-42.84387690342518	4.975961852744609	84.66801051192446	85.02403842064895	0	0
32.09999999999942	-1.99324414177575	-5.404488501574712	-91.1314726616752	0	0.9399999999999999	0	4.637722753579708	-4.049680036074497	-1.138087357377061	12.60296199556171	0.2199631823262668	0	0	0	-0.09796935124657624	-2.968455093238284	-8.466139333183319	0.6686074953908671	0.01166940219808344	0	0	0	0	0	0	42.83947673724239	-42.83947673724239	4.975886037502628	84.66696342459396	85.02411423589284	0	0	42.83947673724239	-42.83947673724239	4.975886037502628	84.66696342459396	85.02411423588821	0	0
32.11999999999942	-1.945772503834485	-5.33842972821781	-90.50121067801534	0	0.9399999999999999	0	4.818593818737612	-3.957480308679675	-1.078678973985518	9.756624301420409	0.1702852179398778	0	0	0	-0.7355796001849283	-2.999010461943175	-8.589242080912774	0.5548283713838295	0.009683581864125712	0	0	0	0	0	0	42.84059556218919	-42.84059556218919	4.975911161326948	84.66731041431707	85.02408911206949	0	0	42.84059556218919	-42.84059556218919	4.975911161326948	84.66731041431707	85.02408911206486	0	0
32.13999999999943	-1.916123372648838	-5.248056770456012	-89.74669133865125	0	0.9399999999999999	0	4.735876216444992	-3.429060435186238	-1.227303609247761	8.261631638448989	0.1441926736778686	0	0	0	-0.6236444322207491	-3.021061660175957	-7.897042513555433	0.878239898407673	0.0153281778495944	0	0	0	0	0	0	42.84094904269566	-42.84094904269566	4.975919091226293	84.66741993560055	85.02408118217041	0	0	42.84094904269566	-42.84094904269566	4.975919091226293	84.66741993560055	85.02408118216579	0	0
32.15999999999943	-1.838505737196262	-5.203512095832423	-88.96970829552667	0	0.9399999999999999	0	4.601407727499865	-3.256461069164428	-1.252061982128291	5.5072113697092	0.09611897100469224	0	0	0	-0.8615785888542319	-3.01894672984962	-7.622639112656001	1.134234658246031	0.0197961292766259	0	0	0	0	0	0	42.84144344887969	-42.84144344887969	4.975930193842493	84.66757327585795	85.02407007955463	0	0	42.84144344887969	-42.84144344887969	4.975930193842493	84.66757327585795	85.02407007955	0	0
32.17999999999943	-1.795329267379537	-5.186358943493532	-88.14160824604035	0	0.9399999999999999	0	4.480581559695746	-3.208799095822305	-1.167853430220953	3.193794950881065	0.05574223752644516	0	0	0	-1.139264035347074	-3.08351005858064	-7.260071785182942	1.734884831688409	0.0302794524558704	0	0	0	0	0	0	42.84186750059506	-42.84186750059506	4.975939714189836	84.66770476310948	85.02406055920764	0	0	42.84186750059506	-42.84186750059506	4.975939714189836	84.66770476310948	85.02406055920301	0	0
